<svg xmlns="http://www.w3.org/2000/svg" viewBox="0 0 1200 675" role="img" aria-labelledby="t d">
<title id="t">NOD analytics preview</title><desc id="d">Dark analytics dashboard preview for NOD Link Studio.</desc>
<rect width="1200" height="675" rx="32" fill="#11120f"/>
<g fill="#f2efe7"><circle cx="78" cy="58" r="7"/><circle cx="97" cy="58" r="7" fill="#ff6b48"/><circle cx="116" cy="58" r="7"/><text x="140" y="64" font-family="Arial,Helvetica,sans-serif" font-size="22" font-weight="700" letter-spacing="4">NOD</text></g>
<text x="74" y="132" font-family="Arial,Helvetica,sans-serif" font-size="13" letter-spacing="3" fill="#9e9b92">LINK INTELLIGENCE</text>
<text x="72" y="212" font-family="Arial,Helvetica,sans-serif" font-size="64" font-weight="700" letter-spacing="-3" fill="#f2efe7">A useful signal,</text>
<text x="72" y="276" font-family="Georgia,serif" font-size="64" font-style="italic" fill="#f2efe7">not a wall of charts.</text>
<g transform="translate(72 330)">
<rect width="1056" height="220" rx="24" fill="#1a1b16" stroke="#33352f"/>
<g transform="translate(28 28)"><text font-family="Arial" font-size="12" letter-spacing="2" fill="#9e9b92">CLICKS</text><text y="60" font-family="Arial" font-size="52" font-weight="700" fill="#f2efe7">324</text><path d="M0 145 C70 128 100 92 160 108 S260 152 330 90 S440 55 510 72" fill="none" stroke="#ff6b48" stroke-width="4"/><path d="M0 145 C70 128 100 92 160 108 S260 152 330 90 S440 55 510 72 L510 164 L0 164Z" fill="#ff6b48" opacity=".1"/></g>
<g transform="translate(600 28)"><text font-family="Arial" font-size="12" letter-spacing="2" fill="#9e9b92">ACTIVE LINKS</text><text y="60" font-family="Arial" font-size="52" font-weight="700" fill="#f2efe7">3</text><rect y="124" width="160" height="4" rx="2" fill="#34362f"/><rect y="124" width="132" height="4" rx="2" fill="#f2efe7"/></g>
<g transform="translate(810 28)"><text font-family="Arial" font-size="12" letter-spacing="2" fill="#9e9b92">TOP DEVICE</text><text y="60" font-family="Arial" font-size="42" font-weight="700" fill="#f2efe7">Mobile</text><g transform="translate(0 104)" font-family="Arial" font-size="10" fill="#9e9b92"><text y="8">Mobile</text><rect x="62" width="115" height="5" rx="2" fill="#ff6b48"/><text x="184" y="8">54%</text><text y="32">Desktop</text><rect x="62" y="24" width="80" height="5" rx="2" fill="#f2efe7" opacity=".65"/><text x="184" y="32">38%</text></g></g>
</g>
<g transform="translate(72 582)" font-family="Arial" font-size="12"><text fill="#9e9b92">case-study</text><text x="240" fill="#6f706a">example.com/case-study</text><text x="720" fill="#f2efe7">184 clicks</text><circle cx="1024" cy="-4" r="5" fill="#79a98b"/></g>
</svg>
