<svg xmlns="http://www.w3.org/2000/svg" viewBox="0 0 1200 675" role="img" aria-labelledby="t d">
<title id="t">NOD Link Studio preview</title><desc id="d">Editorial preview of the NOD URL shortener interface.</desc>
<defs><linearGradient id="g" x1="0" y1="0" x2="1" y2="1"><stop stop-color="#f6f2e9"/><stop offset="1" stop-color="#e6e0d4"/></linearGradient><filter id="s" x="-20%" y="-20%" width="140%" height="140%"><feDropShadow dx="0" dy="18" stdDeviation="24" flood-opacity=".12"/></filter></defs>
<rect width="1200" height="675" rx="32" fill="url(#g)"/>
<g opacity=".18" fill="none" stroke="#121310"><circle cx="955" cy="245" r="165"/><circle cx="955" cy="245" r="115" stroke-dasharray="8 10"/><circle cx="955" cy="245" r="66"/></g>
<g fill="#121310"><circle cx="82" cy="58" r="7"/><circle cx="101" cy="58" r="7" fill="#ff5b3a"/><circle cx="120" cy="58" r="7"/><text x="144" y="64" font-family="Arial,Helvetica,sans-serif" font-size="22" font-weight="700" letter-spacing="4">NOD</text></g>
<text x="78" y="164" font-family="Arial,Helvetica,sans-serif" font-size="15" letter-spacing="4" fill="#69685f">A QUIET TOOL FOR NOISY URLS</text>
<text x="72" y="278" font-family="Arial,Helvetica,sans-serif" font-size="100" font-weight="700" letter-spacing="-6" fill="#121310">Short links.</text>
<text x="72" y="373" font-family="Georgia,serif" font-size="100" font-style="italic" fill="#121310">Long memory.</text>
<text x="75" y="430" font-family="Arial,Helvetica,sans-serif" font-size="22" fill="#69685f">Clean, memorable paths with privacy-aware analytics.</text>
<g filter="url(#s)"><rect x="72" y="486" width="820" height="112" rx="24" fill="#fbf8f1" stroke="#cbc5b9"/><text x="104" y="526" font-family="Arial,Helvetica,sans-serif" font-size="13" letter-spacing="2" fill="#69685f">DESTINATION URL</text><text x="104" y="568" font-family="Arial,Helvetica,sans-serif" font-size="26" fill="#121310">https://your-very-long-link.com/launch...</text><rect x="742" y="512" width="122" height="58" rx="29" fill="#121310"/><text x="777" y="548" font-family="Arial,Helvetica,sans-serif" font-size="16" fill="#f6f2e9">Shorten ↗</text></g>
<circle cx="886" cy="146" r="8" fill="#ff5b3a"/><circle cx="1073" cy="327" r="8" fill="#121310"/>
</svg>
